<?xml version="1.0" encoding="utf-8"?>
<!-- Generator: Adobe Illustrator 21.1.0, SVG Export Plug-In . SVG Version: 6.00 Build 0)  -->
<svg version="1.1" id="Layer_1" xmlns="http://www.w3.org/2000/svg" xmlns:xlink="http://www.w3.org/1999/xlink" x="0px" y="0px"
	 viewBox="0 0 120 120" style="enable-background:new 0 0 120 120;" xml:space="preserve">
<g>
	<path d="M21,93.8c26.7-0.2,53.3-0.5,80-0.7"/>
	<path d="M21,93.6c6.7-0.4,13.3-0.6,20-1l20-0.8c6.7-0.2,13.3-0.8,20-0.6c3.3,0.1,6.7,0.2,10,0.5c3.3,0.2,6.7,0.6,10,1.1l0,0.4
		c-3.3,0.6-6.7,1-10,1.3c-3.3,0.3-6.7,0.5-10,0.7c-6.7,0.4-13.3-0.1-20-0.2l-20-0.4c-6.7-0.2-13.3-0.4-20-0.6L21,93.6z"/>
</g>
<g>
	<path d="M13.5,76.8c31.7-0.3,63.3-0.6,95-0.8"/>
	<path d="M13.5,76.6c7.9-0.4,15.8-0.7,23.7-1L61,74.8c7.9-0.2,15.8-0.8,23.7-0.6c4,0.1,7.9,0.2,11.9,0.5c4,0.2,7.9,0.6,11.9,1.1
		l0,0.4c-4,0.6-7.9,1-11.9,1.3c-4,0.3-7.9,0.5-11.9,0.7C76.9,78.6,68.9,78.1,61,78l-23.8-0.4c-7.9-0.2-15.8-0.3-23.8-0.6L13.5,76.6z
		"/>
</g>
<g>
	<path d="M10,60.8c33.3-0.3,66.7-0.6,100-0.9"/>
	<path d="M10,60.6c8.3-0.4,16.7-0.7,25-1l25-0.8c8.3-0.2,16.7-0.8,25-0.6c4.2,0.1,8.3,0.2,12.5,0.5c4.2,0.2,8.3,0.6,12.5,1.1l0,0.4
		c-4.2,0.6-8.3,1-12.5,1.3c-4.2,0.3-8.3,0.5-12.5,0.7c-8.3,0.4-16.7-0.1-25-0.2l-25-0.4c-8.3-0.2-16.7-0.3-25-0.6L10,60.6z"/>
</g>
<g>
	<path d="M14.5,42.8c31.7-0.3,63.3-0.6,95-0.8"/>
	<path d="M14.5,42.6c7.9-0.4,15.8-0.7,23.7-1L62,40.8c7.9-0.2,15.8-0.8,23.7-0.6c4,0.1,7.9,0.2,11.9,0.5c4,0.2,7.9,0.6,11.9,1.1
		l0,0.4c-4,0.6-7.9,1-11.9,1.3c-4,0.3-7.9,0.5-11.9,0.7C77.9,44.6,69.9,44.1,62,44l-23.8-0.4c-7.9-0.2-15.8-0.3-23.8-0.6L14.5,42.6z
		"/>
</g>
<g>
	<path d="M21,22.8c26.7-0.2,53.3-0.5,80-0.7"/>
	<path d="M21,22.6c6.7-0.4,13.3-0.6,20-1l20-0.8c6.7-0.2,13.3-0.8,20-0.6c3.3,0.1,6.7,0.2,10,0.5c3.3,0.2,6.7,0.6,10,1.1l0,0.4
		c-3.3,0.6-6.7,1-10,1.3c-3.3,0.3-6.7,0.5-10,0.7c-6.7,0.4-13.3-0.1-20-0.2l-20-0.4c-6.7-0.2-13.3-0.4-20-0.6L21,22.6z"/>
</g>
<path d="M83.3,68.3c-2-7.8-7.1-12.1-15.3-12.4c-1.8-0.1-2.8-0.9-3.3-2.7c-1-3.7-1.3-6.8,2.2-9.8c4-3.3,7-7.7,9.4-12.3
	c4-7.9,3.6-15.7-1-23.3c-1.9-3.3-4.6-5.6-8.6-6.1c-7.4-1-12.8,3.1-13.7,10.8c-0.9,7.6,1.2,14.8,3,22c1,4.2,0.5,6.9-3.2,9.8
	C46.5,49.2,41.2,55.2,38,62.7c-4.6,10.9-1,21.3,9.4,27c4.2,2.3,8.7,3.4,13.8,3.4c1.9,0.4,4.7-1.3,6.4,1.3c3.3,4.9-0.4,15.8-5.9,18.1
	c-1.5,0.6-3.3,1.3-4.5,0.4c-1.9-1.5,0.6-2.5,1-3.8c1-3.4,0.9-6.6-1.8-9.1c-2.5-2.4-5.5-2.8-8.7-1.4c-3.4,1.5-4.8,4.4-4.7,8
	c0.1,3.3,1.4,6.1,3.9,8.2c8.5,7.2,21.6,3.6,25.2-6.9c1.3-3.7,1.4-7.6,0.8-11.3c-0.5-3.5,0.4-5.5,3.3-7.7
	C82.9,83.6,85.4,76.5,83.3,68.3z M62.2,12.6c2.3-2.5,5.1-3.7,8.4-2.3c3.3,1.4,4.3,4.4,3.8,7.7c-1.2,7.2-6,12.3-10.8,17.3
	c-1.8,1.8-2.3,0-2.6-1.3c-0.8-3.9-1.8-7.7-1.8-10.9C59.2,18.7,59.7,15.3,62.2,12.6z M62.4,88.3c-11.9,0.6-19.5-9.2-16.3-21.2
	c1.9-7,6.9-11.7,12.6-16.2c1.8,3.7,1.9,5.8-1.7,8.1c-8.3,5.5-7.8,19.4,0.5,23.5c1.2,0.6,2.7,1.8,3.8,0.5c1.4-1.7-0.9-2.2-1.7-3.1
	c-3.7-4.2-4.1-8.8-1-12.1c1.9-2,3.5-2.5,4.1,0.9c1,5.1,2,10.2,3.1,15.3C66.4,87.1,65.4,88.1,62.4,88.3z M77.3,78.4
	c-0.9,2.8-2.1,6.5-5.2,6.3c-2.5-0.1-1.7-4-2.3-6.2c-0.8-3.5-1.4-7.1-2-10.7c-0.5-3,0.9-3.8,3.5-2.8c4.7,1.8,6.2,5.7,6.5,10.5
	C77.7,76.4,77.7,77.4,77.3,78.4z"/>
</svg>
