<?xml version="1.0" encoding="utf-8"?>
<!-- Generator: Adobe Illustrator 21.1.0, SVG Export Plug-In . SVG Version: 6.00 Build 0)  -->
<svg version="1.1" id="Layer_1" xmlns="http://www.w3.org/2000/svg" xmlns:xlink="http://www.w3.org/1999/xlink" x="0px" y="0px"
	 viewBox="0 0 120 120" style="enable-background:new 0 0 120 120;" xml:space="preserve">
<style type="text/css">
	.st0{fill:#FFFFFF;}
</style>
<path class="st0" d="M45,90L45,90c3.3,0,6-2.7,6-6V36c0-3.3-2.7-6-6-6h0c-3.3,0-6,2.7-6,6v48C39,87.3,41.7,90,45,90z"/>
<path class="st0" d="M75,90L75,90c3.3,0,6-2.7,6-6V36c0-3.3-2.7-6-6-6h0c-3.3,0-6,2.7-6,6v48C69,87.3,71.7,90,75,90z"/>
</svg>
