<?xml version="1.0" encoding="utf-8"?>
<!-- Generator: Adobe Illustrator 21.1.0, SVG Export Plug-In . SVG Version: 6.00 Build 0)  -->
<svg version="1.1" id="Layer_1" xmlns="http://www.w3.org/2000/svg" xmlns:xlink="http://www.w3.org/1999/xlink" x="0px" y="0px"
	 viewBox="0 0 120 120" style="enable-background:new 0 0 120 120;" xml:space="preserve">
<style type="text/css">
	.st0{fill:#FFFFFF;}
</style>
<g>
	<path class="st0" d="M32,27.3c12.9-1.3,24.9-2,36-2c6.5,0,11.3,1.5,14.4,4.6C85.5,33,87,37.8,87,44.3v4.5c0,5-1,8.8-3,11.4
		c-2,2.7-5.5,4.9-10.5,6.6l-10,3.5v5h-18v-14L69,52.8v-8.5c0-1.5-0.4-2.8-1.3-3.6s-2.4-1.4-4.7-1.4c-4,0-9.2,0.2-15.5,0.6
		c-6.4,0.4-11.5,0.7-15.5,0.9V27.3z M45.5,81.3h18v15h-18V81.3z"/>
</g>
</svg>
