<?xml version="1.0" encoding="utf-8"?>
<!-- Generator: Adobe Illustrator 21.1.0, SVG Export Plug-In . SVG Version: 6.00 Build 0)  -->
<svg version="1.1" id="Layer_1" xmlns="http://www.w3.org/2000/svg" xmlns:xlink="http://www.w3.org/1999/xlink" x="0px" y="0px"
	 viewBox="0 0 120 120" style="enable-background:new 0 0 120 120;" xml:space="preserve">
<style type="text/css">
	.st0{fill:#FF3300;}
</style>
<g>
	<path class="st0" d="M49.4,30.9L32.6,46.6C32.2,47,32,47.5,32,48v24c0,0.5,0.2,1,0.6,1.4L49.4,89c1.2,1.1,3.2,0.3,3.2-1.4V32.3
		C52.6,30.7,50.6,29.8,49.4,30.9z"/>
	<path class="st0" d="M26.1,48h-8.2c-1,0-1.9,0.8-1.9,1.9v20.2c0,1,0.8,1.9,1.9,1.9h4.9h3.3c1,0,1.9-0.8,1.9-1.9V49.9
		C28,48.8,27.1,48,26.1,48z"/>
	<path class="st0" d="M86,59.7c0-15.4-9.6-28.8-24-35.4c-1.6-0.7-3.6-0.1-4.3,1.4l-0.1,0.2c-0.7,1.4,0,3,1.5,3.7
		c12.2,5.6,20.3,17.2,20.3,30.1c0,13.7-8.7,25.3-21.5,30.7c-1.6,0.7-2.3,2.3-1.6,3.7l0.1,0.2c0.7,1.5,2.6,2.1,4.2,1.4
		C75.7,89.4,86,75.7,86,59.7z"/>
	<path class="st0" d="M71.2,12.5c-2.3-1-5-0.2-6.1,1.9l0,0c-1,1.9,0,4.1,2.1,5.1c16.3,7.5,27.1,22.9,27.1,40
		c0,18.2-11.6,33.6-28.7,40.9c-2.2,0.9-3.2,3.2-2.2,5.2l0,0c1,2,3.6,2.9,5.8,2c20.2-8.4,34.1-26.7,34.1-48.1
		C103.3,39,90.4,21.3,71.2,12.5z"/>
</g>
</svg>
