<?xml version="1.0" encoding="utf-8"?>
<!-- Generator: Adobe Illustrator 21.1.0, SVG Export Plug-In . SVG Version: 6.00 Build 0)  -->
<svg version="1.1" id="Layer_1" xmlns="http://www.w3.org/2000/svg" xmlns:xlink="http://www.w3.org/1999/xlink" x="0px" y="0px"
	 viewBox="0 0 120 120" style="enable-background:new 0 0 120 120;" xml:space="preserve">
<style type="text/css">
	.st0{fill:#FF3300;}
</style>
<g>
	<path class="st0" d="M26.1,72c1,0,1.9-0.8,1.9-1.9V49.9c0-1-0.8-1.9-1.9-1.9h-8.2c-1,0-1.9,0.8-1.9,1.9v20.2c0,1,0.8,1.9,1.9,1.9
		h4.9C22.8,72,26.1,72,26.1,72z"/>
	<path class="st0" d="M94,31l4.1-4.1c1.4-1.4,1.4-3.7,0-5.1s-3.7-1.4-5.1,0l-3.6,3.6c-5-5.3-11.2-9.7-18.2-13c-2.3-1-5-0.2-6.1,1.9
		l0,0c-1,1.9,0,4.1,2.1,5.1c6.3,2.9,11.8,7,16.2,12L78,36.9c-4.1-5.3-9.6-9.6-16.1-12.6c-1.6-0.7-3.6-0.1-4.3,1.4l-0.1,0.2
		c-0.7,1.4,0,3,1.5,3.7c5.9,2.7,10.9,6.9,14.4,11.9L52.6,62.3v-30c0-1.7-2-2.5-3.2-1.4L32.6,46.6C32.2,47,32,47.5,32,48v24
		c0,0.5,0.2,1,0.6,1.4l4.6,4.3L21.8,93.1c-1.4,1.4-1.4,3.7,0,5.1s3.7,1.4,5.1,0l15.6-15.6l6.9,6.4c1.2,1.1,3.2,0.3,3.2-1.4V72.5
		L77,48.1c1.5,3.6,2.3,7.6,2.3,11.6c0,13.7-8.7,25.3-21.5,30.7c-1.6,0.7-2.3,2.3-1.6,3.7l0.1,0.2c0.7,1.5,2.6,2.1,4.2,1.4
		c15.2-6.3,25.5-20,25.5-36c0-5.9-1.4-11.5-4-16.6l5.8-5.8c4.2,6.6,6.6,14.2,6.6,22.2c0,18.2-11.6,33.6-28.7,40.9
		c-2.2,0.9-3.2,3.2-2.2,5.2l0,0c1,2,3.6,2.9,5.8,2c20.2-8.4,34.1-26.7,34.1-48.1C103.3,49,99.9,39.3,94,31z"/>
</g>
</svg>
